# xmcd
#
# Track frame offsets: 
#        150
#        12187
#        26723
#        40626
#        53783
#        70606
#        88517
#
# Disc length: 1335 seconds
#
# Revision: 0
# Processed by: cddbd v1.5.2PL0 Copyright (c) Steve Scherf et al.
# Submitted via: ExactAudioCopyFreeDBPlugin 1.0
#
DISCID=4a053507
DTITLE=Jeffrey East - Jeffrey East
DYEAR=2019
DGENRE=Country
TTITLE0=Still Crazy
TTITLE1=Time is Cold
TTITLE2=Ghost Town
TTITLE3=Retro
TTITLE4=Let's be Strangers
TTITLE5=Because of Yours
TTITLE6=Roller Rink
EXTD=
EXTT0=
EXTT1=
EXTT2=
EXTT3=
EXTT4=
EXTT5=
EXTT6=
PLAYORDER=
